# xmcd CD database file
#
# Track frame offsets:
#	150
#	17940
#	33706
#	52357
#	67341
#	86099
#	105183
#	120868
#	133693
#	153015
#	168662
#	191733
#
# Disc length: 2775 seconds
#
# Revision: 0
# Processed by: cddbd v1.5.2PL0 Copyright (c) Steve Scherf et al.
# Submitted via: CDex 1.51
#
DISCID=a70ad50c
DTITLE=CW Ayon - Lohmador
DYEAR=2012
DGENRE=Blues
TTITLE0=Make Me Wanna
TTITLE1=Where I'm From
TTITLE2=Well Well Well
TTITLE3=Let's Get Gone
TTITLE4=Been Waiting
TTITLE5=End Of My Rope
TTITLE6=My Babe Told Me So
TTITLE7=Don't Want Me Around
TTITLE8=Broken Too
TTITLE9=I Need You Now
TTITLE10=Solitary Man
TTITLE11=Help Me Settle Down
EXTD=YEAR: 2012
EXTT0=
EXTT1=
EXTT2=
EXTT3=
EXTT4=
EXTT5=
EXTT6=
EXTT7=
EXTT8=
EXTT9=
EXTT10=
EXTT11=
PLAYORDER=
